<svg xmlns="http://www.w3.org/2000/svg" xmlns:xlink="http://www.w3.org/1999/xlink" width="207.24" height="62.348" viewBox="0 0 207.24 62.348">
  <defs>
    <linearGradient id="linear-gradient" x1="-0.978" y1="-0.928" x2="1" y2="1" gradientUnits="objectBoundingBox">
      <stop offset="0" stop-color="#201e5a"/>
      <stop offset="1" stop-color="#3439b1"/>
    </linearGradient>
    <linearGradient id="linear-gradient-2" x1="1" y1="1.122" x2="-0.174" y2="-0.219" gradientUnits="objectBoundingBox">
      <stop offset="0" stop-color="#aa9ef8"/>
      <stop offset="1" stop-color="#3934b1"/>
    </linearGradient>
  </defs>
  <g id="Logo-DapCash-illustration" transform="translate(-49 -66)">
    <g id="Group_1388" data-name="Group 1388" transform="translate(-2627.868 -2164.02)">
      <path id="Subtraction_14" data-name="Subtraction 14" d="M24.951,28.322H14.161A14.161,14.161,0,0,1,14.161,0h10.79a14.174,14.174,0,0,1,13.9,11.464H13.992a2.866,2.866,0,1,0,0,5.731H38.786A14.149,14.149,0,0,1,24.951,28.322Z" transform="translate(2676.914 2246.872)" fill="url(#linear-gradient)"/>
      <path id="Path_900" data-name="Path 900" d="M2676.914,2230.043h24.174s15.809-1.08,25.04,11.39,9.427,29.851-1.472,41.045c-7.662,7.868-15.686,9.552-19.953,9.642-.178,0-6.673.377-18.245.2l-9.543-.026a16.593,16.593,0,0,1,1.2-6.186c1.276-2.946,5.2-5.2,8.346-5.2h15.711s17.282-.687,19.639-18.165c1.776-13.166-8.594-18.587-13.974-20.51a19.88,19.88,0,0,0-3.4-.815c-1.809-.216-1.76-.445-16.067-.445,0,0-5.208,0-7.706-2.287s-2.932-3.006-3.448-4.622A12.58,12.58,0,0,1,2676.914,2230.043Z" fill="url(#linear-gradient-2)"/>
    </g>
    <path id="Path_2977" data-name="Path 2977" d="M10.16,0H2.88V-25.08h7.28a23.222,23.222,0,0,1,6.1.64,7.94,7.94,0,0,1,3.62,2.04,8.309,8.309,0,0,1,1.98,3.78,24.612,24.612,0,0,1,.62,6.06q0,6.52-2.92,9.54T10.16,0Zm7.16-19.96a5.164,5.164,0,0,0-2.56-1.56,17.163,17.163,0,0,0-4.6-.48H6.28V-3.2h3.88q4.96,0,6.9-2.12T19-12.56a21.452,21.452,0,0,0-.4-4.6A6.5,6.5,0,0,0,17.32-19.96ZM31.36.32A5.986,5.986,0,0,1,26.9-1.14a6.432,6.432,0,0,1-1.42-4.62q0-3.2,1.72-4.54t5.84-1.34q1.36,0,2.68.12a22.154,22.154,0,0,1,2.48.36v-1.92a3.958,3.958,0,0,0-1.12-3.16,5.486,5.486,0,0,0-3.6-.96q-1.84,0-3.24.14a22.687,22.687,0,0,0-2.8.46v-2.84A22.206,22.206,0,0,1,30.7-20q1.66-.16,3.78-.16,3.56,0,5.28,1.66t1.72,5.14V0h-3l-.16-1.84h-.08a9.5,9.5,0,0,1-3.1,1.56A12.5,12.5,0,0,1,31.36.32ZM33.4-8.96a7.685,7.685,0,0,0-3.78.66,2.534,2.534,0,0,0-1.06,2.34,3.239,3.239,0,0,0,.88,2.54,4.3,4.3,0,0,0,2.88.78,11.363,11.363,0,0,0,3.2-.48,9.291,9.291,0,0,0,2.68-1.2V-8.56q-1.32-.2-2.46-.3T33.4-8.96ZM49.88,6.08H46.6V-19.76h2.84l.2,1.76h.12a8.776,8.776,0,0,1,2.96-1.6,11.816,11.816,0,0,1,3.68-.56q4.04,0,5.78,2.4t1.74,7.84q0,5.44-2.12,7.84T54.72.32a16.754,16.754,0,0,1-2.7-.2,9.037,9.037,0,0,1-2.14-.6Zm10.76-16q0-4.08-1.14-5.68t-4.26-1.6a9.374,9.374,0,0,0-2.82.42,9.9,9.9,0,0,0-2.54,1.22V-3.52a11.05,11.05,0,0,0,2.06.6,12.9,12.9,0,0,0,2.38.2q3.72,0,5.02-1.54T60.64-9.92Zm17.8,7.04a16.946,16.946,0,0,0,3.46-.38,19.263,19.263,0,0,0,3.38-1.02v3.04a22.713,22.713,0,0,1-3.9,1.22,18.014,18.014,0,0,1-3.54.34q-5.76,0-8.12-2.98T67.36-12.6q0-6.68,2.74-9.78t8.74-3.1q1.84,0,3.28.08a22.863,22.863,0,0,1,2.6.28v3q-1.4-.16-2.82-.22t-3.06-.06q-4.48,0-6.24,2.22T70.84-12.6q0,5.44,1.6,7.58T78.44-2.88Zm15,3.2a5.986,5.986,0,0,1-4.46-1.46,6.432,6.432,0,0,1-1.42-4.62q0-3.2,1.72-4.54t5.84-1.34q1.36,0,2.68.12a22.154,22.154,0,0,1,2.48.36v-1.92a3.958,3.958,0,0,0-1.12-3.16,5.486,5.486,0,0,0-3.6-.96q-1.84,0-3.24.14a22.687,22.687,0,0,0-2.8.46v-2.84A22.207,22.207,0,0,1,92.78-20q1.66-.16,3.78-.16,3.56,0,5.28,1.66t1.72,5.14V0h-3l-.16-1.84h-.08a9.5,9.5,0,0,1-3.1,1.56A12.5,12.5,0,0,1,93.44.32Zm2.04-9.28a7.685,7.685,0,0,0-3.78.66,2.534,2.534,0,0,0-1.06,2.34,3.239,3.239,0,0,0,.88,2.54,4.3,4.3,0,0,0,2.88.78,11.363,11.363,0,0,0,3.2-.48,9.291,9.291,0,0,0,2.68-1.2V-8.56q-1.32-.2-2.46-.3T95.48-8.96Zm20-8.24a7.339,7.339,0,0,0-3.54.6,2.643,2.643,0,0,0-.98,2.44,2.085,2.085,0,0,0,.46,1.46,2.451,2.451,0,0,0,1.46.66l5.08.76a5.283,5.283,0,0,1,3.36,1.5,5.5,5.5,0,0,1,.96,3.58q0,3.44-1.64,4.98T115.2.32a34.979,34.979,0,0,1-4.24-.24,18.749,18.749,0,0,1-3.24-.64V-3.64a19.974,19.974,0,0,0,3.14.66,27.567,27.567,0,0,0,3.82.26,5.785,5.785,0,0,0,3.4-.72A3.079,3.079,0,0,0,119-6a2.38,2.38,0,0,0-.52-1.7,3.266,3.266,0,0,0-1.88-.74l-5.08-.76a4.231,4.231,0,0,1-2.86-1.48,5.719,5.719,0,0,1-.98-3.48,5.406,5.406,0,0,1,1.86-4.56q1.86-1.44,5.74-1.44,1.6,0,2.9.08a26.664,26.664,0,0,1,2.74.32v2.92q-1.04-.16-2.44-.26T115.48-17.2ZM129.52,0h-3.28V-26.6h3.28v8.44a16.658,16.658,0,0,1,3.58-1.5,13.041,13.041,0,0,1,3.54-.5,6.754,6.754,0,0,1,4.94,1.64,6.516,6.516,0,0,1,1.66,4.84V0h-3.28V-13.28a3.791,3.791,0,0,0-1.06-2.98,4.876,4.876,0,0,0-3.3-.94,12.452,12.452,0,0,0-3.06.4,14.919,14.919,0,0,0-3.02,1.12Z" transform="translate(113 110)" fill="#272b92"/>
  </g>
</svg>
